<?xml version="1.0" encoding="UTF-8"?>
<!-- Generator: Adobe Illustrator 19.2.1, SVG Export Plug-In . SVG Version: 6.00 Build 0)  -->
<svg version="1.1" id="Capa_1" xmlns="http://www.w3.org/2000/svg" xmlns:xlink="http://www.w3.org/1999/xlink" x="0px" y="0px" viewBox="0 0 512 512" style="enable-background:new 0 0 512 512;" xml:space="preserve">
<style type="text/css">
	.st0{fill:#FFFFFF;stroke:#000000;stroke-miterlimit:10;}
	.st1{fill:#3B5998;}
</style>
<circle class="st0" cx="251" cy="259.6" r="228.7"/>
<g>
	<g>
		<g>
			<path class="st1" d="M256,0C114.6,0,0,114.6,0,256s114.6,256,256,256s256-114.6,256-256C512,114.6,397.4,0,256,0z M322.2,256     l-42,0l0,153.6h-57.6V256h-38.4v-52.9l38.4,0l-0.1-31.2c0-43.2,11.7-69.5,62.6-69.5h42.4v53H301c-19.8,0-20.8,7.4-20.8,21.2     l-0.1,26.5h47.6L322.2,256z"/>
		</g>
	</g>
</g>
</svg>